<?xml version="1.0" standalone="no"?>
<!DOCTYPE svg PUBLIC "-//W3C//DTD SVG 20010904//EN"
 "http://www.w3.org/TR/2001/REC-SVG-20010904/DTD/svg10.dtd">
<svg version="1.0" xmlns="http://www.w3.org/2000/svg"
 width="16.000000pt" height="16.000000pt" viewBox="0 0 16.000000 16.000000"
 preserveAspectRatio="xMidYMid meet">
<metadata>
Created by potrace 1.11, written by Peter Selinger 2001-2013
</metadata>
<g transform="translate(0.000000,16.000000) scale(0.006531,-0.006531)"
fill="#000000" stroke="none">
<path d="M1173 2310 c-42 -17 -51 -55 -50 -199 2 -132 2 -133 30 -157 39 -34
81 -31 119 6 l30 30 -4 140 c-3 124 -5 142 -23 160 -24 23 -72 33 -102 20z"/>
<path d="M455 2010 c-40 -16 -62 -70 -46 -112 5 -13 52 -63 105 -111 106 -96
133 -106 181 -64 20 17 27 33 28 61 1 35 -6 44 -99 137 -103 101 -119 110
-169 89z"/>
<path d="M1895 2010 c-11 -4 -59 -48 -107 -98 -78 -80 -88 -93 -88 -126 0 -47
36 -86 80 -86 24 0 50 18 129 90 104 94 121 123 102 172 -18 48 -68 69 -116
48z"/>
<path d="M1094 1745 c-283 -61 -473 -358 -413 -647 50 -240 282 -428 529 -428
248 0 479 188 529 428 51 244 -71 493 -294 602 -121 59 -226 72 -351 45z m268
-197 c79 -36 142 -98 181 -177 29 -60 32 -74 32 -161 0 -87 -3 -101 -32 -161
-39 -79 -102 -140 -181 -177 -49 -23 -70 -27 -152 -27 -78 0 -104 4 -144 23
-182 84 -267 282 -201 472 33 96 133 193 234 225 71 23 192 15 263 -17z"/>
<path d="M149 1285 c-55 -30 -55 -121 1 -150 21 -11 62 -15 154 -15 117 0 127
1 153 24 22 19 28 32 28 66 0 34 -6 47 -28 66 -27 23 -35 24 -155 24 -91 -1
-135 -5 -153 -15z"/>
<path d="M1977 1289 c-11 -6 -25 -26 -33 -45 -12 -29 -12 -39 0 -68 8 -19 23
-39 34 -45 28 -15 254 -14 287 1 40 18 59 61 45 104 -18 54 -49 64 -192 64
-69 0 -131 -5 -141 -11z"/>
<path d="M512 639 c-48 -45 -93 -92 -100 -105 -21 -39 -3 -86 40 -107 33 -16
40 -16 70 -4 18 8 71 53 116 100 74 74 84 89 85 122 1 48 -29 75 -84 75 -35 0
-48 -9 -127 -81z"/>
<path d="M1722 697 c-14 -14 -22 -36 -22 -56 0 -28 13 -47 83 -118 45 -47 97
-92 115 -100 30 -12 37 -12 70 4 45 22 62 66 41 106 -8 14 -53 61 -101 106
-78 72 -92 81 -126 81 -27 0 -45 -7 -60 -23z"/>
<path d="M1153 476 c-28 -24 -28 -25 -29 -158 -1 -96 2 -141 12 -160 27 -53
85 -63 131 -24 l28 24 0 147 0 147 -28 24 c-36 31 -78 31 -114 0z"/>
</g>
</svg>
