<svg width="580" height="400" xmlns="http://www.w3.org/2000/svg">
 <!-- Created with Method Draw - http://github.com/duopixel/Method-Draw/ -->
 <g>
  <title>background</title>
  <rect fill="#fff" id="canvas_background" height="402" width="582" y="-1" x="-1"/>
  <g display="none" overflow="visible" y="0" x="0" height="100%" width="100%" id="canvasGrid">
   <rect fill="url(#gridpattern)" stroke-width="0" y="0" x="0" height="100%" width="100%"/>
  </g>
 </g>
 <g>
  <title>Layer 1</title>
  <path d="m48.5,278.399994c0,0 0,0 0,0c1,0 2.298698,-1.051453 4,0c1.902115,1.175568 4,2 8,2c4,0 10,0 17,0c7,0 16,0 27,0c9,0 20,0 32,0c10,0 24,0 36,0c8,0 17,0 26,0c8,0 15.012238,-0.442413 23,0c9.041534,0.500763 16.953323,1.499023 25,2c5.988403,0.372833 12,0 18,0c4,0 8,0 16,0c4,0 8,0 12,0c4,0 8,2 12,2c4,0 8,0 12,0c4,0 6,0 9,0c3,0 7,0 9,0c3,0 6,0 10,0c1,0 4,0 6,0c3,0 6,0 8,0c3,0 6,0 10,0c4,0 6,0 9,0c3,0 7,0 11,0c4,0 8,0 10,0c4,0 7,0 10,0c2,0 4.878571,0.493469 8,1c3.948364,0.640717 5.878693,-2.121307 8,0c0.707092,0.707092 2,1 4,1c0,0 0,0 1,0c1,0 3,0 3,0c2,2 3.796997,2.2565 5,3c2.690002,1.662506 6.386871,1.917603 9,3c1.847748,0.765381 4.053497,-0.459503 6,0c2.176239,0.513733 4.012909,0.839813 5,1c3.121429,0.506531 4,1 7,1c0,0 2,0 4,0c2,0 4,0 4,0c2,0 4,0 4,0c1,0 4,0 4,0c1,0 2,0 4,0c0,0 0,0 0,2c0,0 0,-2 0,-2c-2,-1 -2.292908,-1.292908 -3,-2c-1.414215,-1.414215 -0.458801,-2.693451 -1,-4c-0.765381,-1.847748 0,-4 0,-6c0,-2 -1.789856,-5.07843 -3,-8c-0.855713,-2.065857 -1,-4 -1,-6c0,-2 -0.346191,-3.705475 -2,-6c-1.307465,-1.813995 -2,-5 -2,-6c0,-2 0,-3 0,-4c0,-2 -0.824432,-2.097885 -2,-4c-1.051453,-1.701309 -0.458801,-2.693436 -1,-4c-0.765381,-1.847763 -1,-4 -1,-4c0,-2 0,-3 0,-4c0,-2 -1.770233,-3.026749 -2,-4c-0.513733,-2.176254 -2,-2 -2,-3c0,-1 -2.149353,-2.474274 -3,-3c-1.9021,-1.175568 0.414215,-2.585785 -1,-4c-1.414215,-1.414215 -3.292908,-0.292892 -4,-1c-0.707092,-0.707108 -0.298706,0.051468 -2,-1c-1.9021,-1.175568 -2,-2 -2,-2c0,-1 -1.693451,-1.458801 -3,-2c-0.923889,-0.38269 -0.386871,-0.917603 -3,-2c-1.847748,-0.765366 -2,0 -4,0c-2,0 -4,-1 -6,-1c-2,0 -4,0 -7,0c-1,0 -4,0 -5,0c0,0 -2.585785,-1.414215 -4,0c-0.707092,0.707108 0,1 -2,1c-1,0 -2,2 -2,2c0,1 -3,2 -3,2c-1,2 -0.474274,2.149353 -1,3c-1.175568,1.902115 -3.458801,2.693436 -4,4c-0.38269,0.923874 -0.585785,1.585785 -2,3c-0.707092,0.707108 -1,2 -2,4c0,0 0.707092,1.292892 0,2c-1.414215,1.414215 -2,2 -3,2c0,0 -1,0 -1,1c0,0 0.707092,-0.292892 0,-1c-1.414215,-1.414215 -2,-2 -2,-2c0,-1 -0.486267,-1.823746 -1,-4c-0.229767,-0.973251 0,-2 0,-4c0,0 -1,-1 -1,-2c0,-2 0,-3 0,-4c0,-2 0,-2 0,-4c0,0 -2,-2 -2,-2c-1,-1 0.414215,-2.585785 -1,-4c-0.707092,-0.707108 -1,-1 -1,-2c0,-2 0.525726,-2.149353 0,-3c-1.175568,-1.902115 -2.234619,-1.152237 -3,-3c-0.541199,-1.306564 -1,-2 -1,-2c0,-2 0,-2 0,-3c0,-1 -0.585785,-1.585785 -2,-3c-0.707092,-0.707108 -1,-1 -2,-2c0,0 0,-2 0,-3c0,-1 -2.292908,-2.292892 -3,-3c-0.707092,-0.707108 -1,-2 -1,-2c0,-2 0.707092,-3.292892 0,-4c-1.414215,-1.414215 -3,-2 -4,-4c0,0 1.414215,-2.585785 0,-4c-1.414215,-1.414215 -2,-2 -3,-2c0,0 -1,0 -1,-1c0,-1 -0.298706,0.051468 -2,-1c-1.9021,-1.175568 -2,-2 -2,-2c0,0 -2.585785,1.414215 -4,0c-0.707092,-0.707108 0,-1 -3,-1c-1,0 -1,0 -1,0c-2,-1 -3,-1 -4,-1c0,0 0.450836,-0.95517 -3,-2c-0.957092,-0.28978 -1,0 -3,0c-1,0 -2,-1 -2,-1c-3,0 -4,-1 -4,-1c-3,0 -4.152252,0.765366 -6,0c-2.613129,-1.082397 -4,-2 -6,-2c-2,0 -4.053497,-0.540497 -6,-1c-2.176239,-0.513748 -5,-1 -6,-1c-4,0 -6.0979,-0.824432 -8,-2c-2.551941,-1.577194 -4,0 -8,0c0,0 -3,0 -4,0c-4,0 -4,0 -7,0c-1,0 -4,2 -5,2c0,0 -2.852722,0.173096 -4,1c-1.813995,1.307449 -2.948547,1.298691 -4,3c-1.175568,1.902115 -3.61731,1.076126 -4,2c-1.082397,2.613129 -3.458801,1.693436 -4,3c-0.38269,0.923874 -2,3 -4,4c-2,1 -3.234619,3.152237 -4,5c-1.082397,2.613129 -3.486267,1.823746 -4,4c-0.459503,1.946503 -2,2 -3,3c-1,1 -0.705475,1.346191 -3,3c-1.813995,1.307449 -2,2 -2,2c-2,2 -3.458801,1.693436 -4,3c-0.38269,0.923874 0,1 -2,1c-1,0 -2,2 -2,2c0,1 -2,1 -4,2c0,0 -0.298691,-1.051468 -2,0c-1.902115,1.175568 -2,2 -2,2c0,0 -2,-2 -3,-2c-1,0 -0.61731,-1.076126 -1,-2c-1.082397,-2.613129 -2,-2 -3,-3c-1,-1 -0.234634,-3.152237 -1,-5c-1.082397,-2.613129 -3.458801,-2.693436 -4,-4c-1.148056,-2.771637 -0.323669,-5.520157 -2,-7c-2.703003,-2.386169 -2,-4 -2,-5c0,-2 -2,-4 -3,-6c-1,-2 -1,-4 -1,-4c0,-2 -2,-4 -2,-4c-1,-2 -2,-4 -2,-6c0,-2 -0.346191,-1.70546 -2,-4c-1.307449,-1.813995 -2,-4 -2,-6c0,-1 -0.346191,-1.70546 -2,-4c-1.307449,-1.813995 -2,-4 -2,-5c0,-1 -2,-2.999992 -3,-3.999992c-1,-1 0.051468,-1.298698 -1,-3c-1.175568,-1.902115 -3.292892,-1.292892 -4,-2c-1.414215,-1.414215 -0.186005,-1.692551 -2,-3c-1.147263,-0.826904 -2,-1 -2,-3c0,0 -2,0 -3,-1c-1,-1 -1,-1 -1,-1c-2,-2 -4,-2 -4,-3c0,0 -2.585785,0.414215 -4,-1c-1.414215,-1.414215 -3.026749,-1.770248 -4,-2c-2.176254,-0.513741 -3.076126,-1.617317 -4,-2c-2.613129,-1.08239 -4,-2 -4,-2c-3,-1 -3.878555,-1.493462 -7,-2c-0.987091,-0.160179 -4,0 -5,0c-3,0 -4,0 -6,0c-2,0 -2,0 -5,0c-1,0 -5,0 -5,0c-4,0 -5.823746,0.486259 -8,1c-1.946503,0.459503 -4.128723,0.130646 -7,1c-3.450844,1.04483 -5.186005,2.692551 -7,4c-2.29454,1.653809 -4.91761,1.386871 -6,4c-0.765366,1.847755 -2.153763,3.635384 -4,6c-2.537407,3.249855 -5.81266,4.20681 -8,6c-2.788322,2.285881 -4.811455,5.134636 -7,7.999992c-1.919479,2.513077 -3.610649,4.159271 -5,7c-1.584106,3.238922 -3.056282,5.236649 -4,7c-1.701309,3.178925 -2.851952,5.228363 -4,8c-2.164787,5.226257 -4,6 -6,9c-2,3 -2.346191,4.70546 -4,7c-1.307449,1.813995 -2,5 -2,6c0,3 -2,4 -3,6c-1,2 -1,4 -1,5c0,3 -2.458805,3.693436 -3,5c-0.765366,1.847763 0,4 -1,6c0,0 0,2 0,4c0,0 -2,2 -2,2c0,2 -1.292892,3.292892 -2,4c-1.414215,1.414215 0,3 0,4c0,2 -0.824429,2.097885 -2,4c-1.051464,1.701309 -1,2 -1,4c0,0 -1,2 -1,3c0,3 0,4 0,5c0,2 -0.917606,3.386871 -2,6c-0.765366,1.847763 -1,4 -1,4c0,2 0,4 0,4c0,2 -1,2 -1,4c0,1 0,2 0,4c0,0 0,1 0,2c0,2 0,2 -2,4c0,0 -0.292892,1.292892 -1,2c-0.707108,0.707092 0,2 0,2c0,2 -1,2 -1,2c0,1 0,2 0,2c0,2 -0.707108,2.292908 0,3c0.707108,0.707092 1,1 1,1c1,0 1,2 1,2c2,1 2,2 2,2c0,2 0,2 0,3c0,1 0,1 0,1c1,0 1,2 2,2c0,0 2,0 2,1c0,0 0,0 1,0c1,0 1,1 3,1c0,0 0,0 0,0l1,0l1,0l2,0" id="svg_1" stroke-width="1.5" stroke="#000" fill="none"/>
 </g>
</svg>