<svg width="580" height="400" xmlns="http://www.w3.org/2000/svg">
 <!-- Created with Method Draw - http://github.com/duopixel/Method-Draw/ -->
 <g>
  <title>background</title>
  <rect fill="#fff" id="canvas_background" height="402" width="582" y="-1" x="-1"/>
  <g display="none" overflow="visible" y="0" x="0" height="100%" width="100%" id="canvasGrid">
   <rect fill="url(#gridpattern)" stroke-width="0" y="0" x="0" height="100%" width="100%"/>
  </g>
 </g>
 <g>
  <title>Layer 1</title>
  <path d="m56.5,288.399994c0,0 1.228363,-1.148041 4,0c1.306564,0.541199 4.048332,1.306488 9,2c7.20974,1.009766 13,2 20,2c7,0 15.965988,1.499481 27,2c11.987671,0.543762 24,0 40,0c12,0 22,0 32,0c12,0 24,0 37,0c15,0 27,0 39,0c8,0 16,0 24,0c4,0 10,0 16,0c5,0 10,0 16,0c4,0 8.01947,0.394165 12,0c5.074219,-0.502441 12,-2 17,-2c7,0 11,0 15,0c4,0 8,0 12,0c5,0 10.051636,-0.640717 14,0c3.121429,0.506531 7,1 10,1c4,0 7.907776,0.496216 12,1c3.970032,0.488739 6,0 10,0c3,0 6,0 10,0c4,0 8,0 10,0c3,0 6,0 10,0c1,0 4,0 8,0c2,0 4,0 6,0c2,0 2.878571,-0.493469 6,-1c1.974182,-0.320374 4,0 8,-1c0,0 4,0 4,0c1,0 2,0 4,-2c0,0 0,0 1,0c1,0 3,0 3,0c0,0 1,0 2,0c2,0 2,0 2,0c1,2 2,2 4,2c0,0 0.292908,0.707092 1,0c1.414215,-1.414215 -0.292908,-1.292908 -1,-2c-0.707092,-0.707092 0,-2 0,-2c0,0 0,-2 0,-2c-2,0 -2.458801,-0.693451 -3,-2c-0.765381,-1.847748 -1,-2 -1,-3c0,-1 1.414215,-1.585785 0,-3c-1.414215,-1.414215 -2.770233,-1.026764 -3,-2c-0.513733,-2.176239 -1,-2 -1,-3c0,-1 -2,-1 -2,-1c-1,-2 -2,-3 -2,-4c0,0 -2.076111,-1.61731 -3,-2c-1.306549,-0.541199 -1,-2 -1,-2c-3,-2 -4,-2 -4,-3c0,-1 -2.585785,-1.585785 -4,-3c-0.707092,-0.707092 -2.585785,-0.585785 -4,-2c-1.414215,-1.414215 -2.906342,-3.103409 -4,-4c-2.78833,-2.285873 -4.611053,-1.92807 -7,-4c-1.68924,-1.465073 -3.0979,-4.824432 -5,-6c-2.551941,-1.577194 -4,-2 -8,-4c-2,-1 -4.613831,-1.296997 -7,-4c-1.479828,-1.676331 -5.152252,-3.234634 -7,-4c-2.613129,-1.082397 -4.881531,-2.190277 -8,-4c-1.93399,-1.122345 -4.0979,-2.824432 -6,-4c-1.701294,-1.051468 -3.823761,-1.486252 -6,-2c-1.946503,-0.459503 -1.549164,-0.95517 -5,-2c-0.957092,-0.28978 -3.076111,-0.61731 -4,-1c-1.306549,-0.541199 -3,-1 -5,-1c0,0 -2,0 -4,-2c0,0 -2.693451,-0.458801 -4,-1c-1.847748,-0.765366 -3.292908,-0.292892 -4,-1c-2.82843,-2.82843 -4,0 -7,0c-1,0 -3.149353,0.525726 -4,0c-1.9021,-1.175568 -3,-2 -4,-2c-1,0 -3,0 -5,0c0,0 -4,0 -4,0c-3,0 -4,0 -7,0c-1,0 -4,0 -5,0c-2,0 -3,0 -4,0c-2,0 -3,0 -4,0c0,0 -1.0979,0.824432 -3,2c-0.850647,0.525726 -1,0 -1,0c-2,0 -3,0 -4,0c0,0 0.176239,0.486252 -2,1c-0.973236,0.229752 -2,0 -2,1c0,0 -2,0 -3,0c-1,0 0.414215,0.585785 -1,2c-1.414215,1.414215 -3,0 -3,0c-1,0 -1,0 -1,0c-2,0 -2,1 -3,1c-1,0 -1,1 -1,1c-2,0 -3,0 -3,0c0,0 -1,0 -1,-1c0,-1 0,-1 0,-3c0,0 0,-1 0,-2c0,0 0,-2 0,-3c0,-1 0,-1 0,-3c0,0 0,-2 0,-2c0,-2 0,-2 0,-4c0,-2 -2,-2 -2,-4c0,0 0,-2 0,-4c0,-2 -0.458801,-2.693436 -1,-4c-0.765381,-1.847763 0,-4 0,-6c0,-1 -1,-4 -1,-6c0,-2 0,-4 0,-6c0,-2 -0.513,-3.593994 -2,-6c-1.662506,-2.689987 -2,-6 -2,-8c0,-2 -0.917603,-3.386871 -2,-6c-0.38269,-0.923874 -1.486267,-1.823746 -2,-4c-0.459503,-1.946503 0,-4 0,-4c0,-2 -2.149353,-3.474274 -3,-4c-1.9021,-1.175568 -1,-4 -1,-4c0,-2 -0.346191,-1.70546 -2,-4c-1.307465,-1.813995 -2,-2 -2,-3.999992c0,-2 -2.2565,-3.796997 -3,-5c-1.662506,-2.689995 -1.346191,-2.70546 -3,-5c-1.307465,-1.813995 -2,-2 -2,-4c0,-2 -2,-2 -3,-3c-1,-1 -1,-1 -1,-3c0,0 0,0 -2,0c-1,0 -1.292908,-0.292892 -2,-1c-0.707092,-0.707108 -0.585785,0.414215 -2,-1c-1.414215,-1.414215 -1.292908,-1.292892 -2,-2c-0.707092,-0.707108 -2,-2 -4,-2c0,0 -2.585785,-0.585785 -4,-2c-0.707092,-0.707108 -3,-2 -4,-2c0,0 -3.026764,-1.770248 -4,-2c-2.176239,-0.513741 -4,-2 -4,-2c-3,-2 -4.053497,-1.540497 -6,-2c-2.176254,-0.513741 -4,-1 -6,-2c0,0 -2,0 -4,0c0,0 -3,0 -4,0c0,0 -2,0 -4,0c0,0 -3,0 -4,0c-4,0 -6,0 -8,0c-2,0 -3,0 -4,0c-2,0 -4.053497,-0.459503 -6,0c-2.176254,0.513741 -2.448044,0.422806 -5,2c-1.902115,1.175568 -4.026749,1.770248 -5,2c-2.176254,0.513741 -4,2 -4,2c-2,2 -4,2 -4,2c0,1 -2.149353,1.474266 -3,2c-1.902115,1.175568 0.414215,2.585785 -1,4c-1.414215,1.414215 -3,0 -4,2c0,0 0.707108,1.292892 0,2c-1.414215,1.414215 -3.292892,1.292892 -4,2c-1.414215,1.414215 0,2 0,2c-2,2 -1.693436,3.458801 -3,4c-0.923874,0.382683 -1,0 -1,2c0,0 0.707108,0.292892 0,1c-1.414215,1.414215 -2.149353,0.474266 -3,1c-1.902115,1.175568 -1,2 -1,3c0,1 -2,3 -3,4c-1,1 -0.386871,3.917595 -3,4.999992c-0.923874,0.38269 -1.61731,3.076126 -2,4c-1.082397,2.613129 -2.234634,4.152237 -3,6c-0.541199,1.306564 -0.234634,2.152237 -1,4c-1.082397,2.613129 -3,4 -3,4c-1,2 -1,4 -1,4c0,1 -2.486252,1.823746 -3,4c-0.229752,0.973251 -1,2 -1,2c0,2 0.707108,3.292892 0,4c-1.414215,1.414215 -2,2 -2,2c-1,0 -0.292892,1.292892 -1,2c-0.707108,0.707108 -1,0 -1,2c0,0 0,0 -2,0c-1,0 -2,0 -2,0c0,0 1.414215,-0.585785 0,-2c-1.414215,-1.414215 -3.292892,0.707108 -4,0c-0.707108,-0.707108 0,-1 0,-1c-2,-1 -3,-1 -4,-1c0,0 0,-2 -2,-2c-1,0 -2,0 -2,0c0,0 -2,-1 -3,-1c-1,0 -1,0 -1,0c-2,0 -3,0 -4,-1c0,0 0,0 -3,0c-1,0 -1,0 -1,0c-2,0 -4,0 -4,0c-2,0 -3,0 -4,1c0,0 -3,0 -4,1c0,0 -2,0 -4,2c0,0 -1.693436,0.458801 -3,1c-0.923882,0.38269 -1,1 -1,1c-2,0 -3.292892,1.292892 -4,2c-0.707108,0.707108 -2.149345,1.474274 -3,2c-1.902115,1.175568 -1.186005,1.692551 -3,3c-1.14727,0.826904 -2,1 -2,3c0,1 -0.585785,2.585785 -2,4c-0.707108,0.707108 -2,1 -2,2c0,2 1.414215,2.585785 0,4c-1.414215,1.414215 -2.292892,1.292892 -3,2c-0.707108,0.707108 -1,2 -1,4c0,1 0,2 0,4c0,0 -0.585785,0.585785 -2,2c-2.121323,2.121323 -1.486259,3.823746 -2,6c-0.459503,1.946503 0,4 0,5c0,1 -2,3 -3,5c0,0 -0.458801,1.693436 -1,3c-0.382683,0.923874 0,1 0,3c0,1 -0.585785,0.585785 -2,2c-1.414215,1.414215 0,2 -1,4c-1,2 -1,2 -1,3c0,1 0,3 0,3c-2,2 -2.149345,3.474274 -3,4c-1.902115,1.175568 -1,2 -1,4c0,1 0,2 0,4c0,0 -0.824429,0.097885 -2,2c-1.051464,1.701309 -1,4 -1,6c0,0 -1,2 -1,4c0,1 0,2 0,2c0,2 0,3 -2,4c0,0 0,2 0,2c-1,1 -1,2 -2,4c0,0 0,1 0,2c0,0 0,2 0,2c0,1 0,2 0,2c0,2 0,2 0,3c0,1 0,1 0,1c0,2 0,2 0,3c0,1 1,1 1,1c0,2 0.292892,1.292908 1,2c0.707108,0.707092 0,2 2,2c0,0 0,0 0,2c0,0 0,0 1,0c1,0 3,1 3,1c0,1 0,1 0,1c1,0 1,2 2,2c2,0 2,0 2,0l0,0" id="svg_1" stroke-width="1.5" stroke="#000" fill="none"/>
 </g>
</svg>