<svg width="580" height="400" xmlns="http://www.w3.org/2000/svg">
 <!-- Created with Method Draw - http://github.com/duopixel/Method-Draw/ -->
 <g>
  <title>background</title>
  <rect fill="#ffffff" id="canvas_background" height="402" width="582" y="-1" x="-1"/>
  <g display="none" overflow="visible" y="0" x="0" height="100%" width="100%" id="canvasGrid">
   <rect fill="url(#gridpattern)" stroke-width="0" y="0" x="0" height="100%" width="100%"/>
  </g>
 </g>
 <g>
  <title>Layer 1</title>
  <path id="svg_4" d="m-262.5,12.4" opacity="0.5" stroke-width="1.5" stroke="#000" fill="#fff"/>
  <path d="m92.5,258.399994c0,0 0,2 0,2c1,0 4,0 4,0c4,0 5,0 8,0c4,0 8,0 12,0c4,0 8,0 12,0c4,0 9,0 16,0c4,0 8,0 13,0c4,0 11,0 15,0c8,0 12,0 18,0c6,0 10.020447,-1.505127 16,-2c6.062042,-0.501709 10.090225,-1.054474 15,-2c5.287994,-1.018372 8.907791,-2.496231 13,-3c5.955048,-0.733093 10,-1 14,-1c4,0 8,0 12,0c4,0 8,0 12,0c4,0 8,0 12,0c2,0 8,-2 10,-2c4,0 8,0 14,0c4,0 8,0 12,0c4,0 9,0 12,0c4,0 7.647491,0.972519 12,2c3.893005,0.919006 6,0 8,0c4,0 8,0 10,0c3,0 6,0 10,0c4,0 5,0 8,0c4,0 5,0 8,0c2,0 4,0 5,0c3,0 3,0 5,0c2,0 4,0 6,0c1,0 3.693451,0.458801 5,1c2.771637,1.148056 5,0 7,0c4,0 5,1 8,1c1,0 4,0 4,0c2,0 4,0 4,0c0,0 1,0 4,0c0,0 0,0 1,0c1,0 3,0 3,-1c0,0 1,0 2,0c2,0 2,0 3,0c1,0 3.106995,0.080994 7,1c4.352509,1.027481 5.907776,2.496216 10,3c2.977509,0.366547 6,1 7,1c3,0 3,0 3,0c1,0 2,0 2,0c0,-2 0,-4 0,-6c0,-3 -1,-6 -1,-10c0,-1 0,-4 0,-8c0,-4 0.164948,-8.006821 0,-10c-0.501709,-6.062042 -1,-10 -1,-14c0,-4 -0.448395,-7.805649 -2,-12c-1.430481,-3.867004 -2,-8 -2,-12c0,-4 -2.496216,-5.907791 -3,-10c-0.488739,-3.970032 -1,-7 -1,-10c0,-2 -1.540497,-4.053497 -2,-6c-0.513733,-2.176254 -1,-3 -2,-6c0,0 0,-2 0,-2c0,-2 0.38269,-3.076126 0,-4c-1.082397,-2.613129 -2.458801,-1.693436 -3,-3c-0.38269,-0.923874 -0.292908,-0.292892 -1,-1c-1.414215,-1.414215 0,-2 0,-2c0,-1 -0.585785,-0.585785 -2,-2c-1.414215,-1.414215 -1.292908,-1.292892 -2,-2c-1.414215,-1.414215 -2.486267,-1.823746 -3,-4c-0.229767,-0.973251 -1,-2 -1,-2c0,-2 -2,-2 -3,-3c-1,-1 -1,-2.999992 -1,-2.999992c-2,-1 -3,-2 -4,-4c0,0 -1.693451,-1.458801 -3,-2c-0.923889,-0.382683 -1.186005,-1.692551 -3,-3c-1.147278,-0.826904 -0.585785,-1.585785 -2,-3c-1.414215,-1.414215 -3.458801,0.306564 -4,-1c-0.38269,-0.923882 0,-1 -2,-1c-2,0 -2,-2 -2,-2c-2,0 -4,0 -4,0c-2,0 -3,0 -4,0c0,0 -3,0 -4,0c0,0 -2,0 -4,2c0,0 -1.693451,1.458801 -3,2c-0.923889,0.382683 -1,0 -3,2c-1,1 -2,2 -2,2c0,0 -2.076111,1.617317 -3,2c-1.306549,0.541199 -1,2 -1,2c-2,2 -3,3 -4,4c0,0 0,1.999992 0,1.999992c-2,0 -2,2 -3,2c-1,0 -1,2 -1,3c0,1 -2.458801,2.693436 -3,4c-0.38269,0.923874 -1,3 -1,5c0,0 -0.186005,1.692551 -2,3c-1.147278,0.826904 -1.458801,2.693436 -2,4c-0.38269,0.923874 0,1 0,3c0,0 -1.292908,1.292892 -2,2c-0.707092,0.707108 -1.292908,2.707108 -2,2c-1.414215,-1.414215 0,-2 0,-2c0,-1 -0.917603,-1.386871 -2,-4c-0.765381,-1.847763 -1.486267,-3.823746 -2,-6c-0.68927,-2.919754 -2.224213,-5.902832 -3,-8c-1.430481,-3.867004 -3.115875,-7.963837 -4,-10.999992c-1.152771,-3.958679 -3.167969,-7.920341 -5,-12c-2.206055,-4.91256 -4,-9 -6,-13c-2,-4 -4,-8 -6,-12c-2,-4 -4.692383,-7.410919 -8,-12c-2.614899,-3.627983 -4.346191,-5.70546 -6,-8c-2.614899,-3.627983 -2.309998,-5.337494 -5,-7c-1.203003,-0.743496 -0.386871,-1.917606 -3,-3c-0.923889,-0.382683 -2,0 -2,-1c0,0 0,0 -2,0c-1,0 -2,0 -2,0c-3,0 -4.051636,0.640728 -8,0c-3.121429,-0.506542 -4,-1 -8,-1c-3,0 -6,0 -8,0c-4,0 -6,0 -8,0c-3,0 -4,0 -8,0c-2,0 -4,0 -7,0c-1,0 -3.693451,0.458805 -5,1c-2.771637,1.148048 -4.448059,-0.577194 -7,1c-1.9021,1.175571 -5,3 -5,3c-3,1 -4.132996,2.569504 -8,4c-2.097168,0.775795 -4.611038,2.92807 -7,5c-1.68924,1.465073 -2.70546,4.346191 -5,6c-3.627991,2.614906 -5.648865,2.19577 -8,6c-1.051468,1.701302 -2.851944,4.228363 -4,7c-1.623581,3.919685 -4,5 -6,7c-2,2 -2,5 -5,8c-1,1 -1.415894,1.761078 -3,5c-1.389359,2.840721 -2,4 -2,5c0,2 -0.824432,2.097885 -2,4c-1.051468,1.701302 -1.458801,2.693436 -2,4c-0.765366,1.847755 0.38269,3.076118 0,4c-1.082397,2.613121 -1.693436,3.458794 -3,3.999992c-0.923874,0.38269 -1,2 -1,4c0,0 -2,2 -3,4c-1,2 -0.130646,4.128723 -1,7c-1.04483,3.450851 -3.486252,4.823746 -4,7c-0.459503,1.946503 -0.346191,3.70546 -2,6c-1.307449,1.813995 -1.458801,2.693436 -2,4c-0.765366,1.847763 0,2 0,3c0,1 0,1 0,3c0,1 0,2 0,2c0,2 0,2 0,3c0,1 0,1 -2,1c-1,0 -2,0 -2,0c-2,0 -1.693436,-1.458801 -3,-2c-0.923874,-0.38269 -0.386871,-0.917603 -3,-2c-0.923874,-0.38269 -2,0 -2,-1c0,0 -1.693436,-0.458801 -3,-1c-0.923874,-0.38269 -1.298691,1.051468 -3,0c-1.902115,-1.175568 -2,-2 -4,-2c-1,0 -2,-1 -4,-1c-2,0 -4,-1 -6,-1c-2,0 -3.386871,-0.917603 -6,-2c-1.847763,-0.765366 -2,0 -5,0c-1,0 -1,0 -4,0c-1,0 -1,2 -3,2c-2,0 -1.823746,1.486252 -4,2c-1.946503,0.459503 -4.585785,0.585785 -6,2c-0.707108,0.707108 -2.418861,2.418854 -4,4c-1.581139,1.581146 -4,2 -6,4c-2,2 -2,2 -5,5c-1,1 -1.763931,1.763931 -4,4c-2.236069,2.236069 -3.91761,2.386871 -5,5c-0.765366,1.847763 -0.611046,1.92807 -3,4c-1.689247,1.465073 -0.528145,3.118332 -1,4c-1.701309,3.178925 -4,4 -4,6c0,1 -0.236649,1.05629 -2,2c-3.178925,1.701309 -2.346191,5.70546 -4,8c-1.307449,1.813995 -2,4 -2,6c0,2 -3.458801,4.693436 -4,6c-1.530731,3.695511 -0.824432,6.097885 -2,8c-1.577194,2.551956 -1,4 -1,6c0,1 0,2 0,4c0,0 0,1 0,2c0,0 0,2 0,2c0,1 0.292892,1.292892 1,2c1.414215,1.414215 2,0 2,0c0,2 0,2 0,2c0,1 0,2 0,2c1,0 1,2 1,2c1,0 0.292892,1.292908 1,2c1.414215,1.414215 2,0 2,0c1,0 2,0 4,0c0,0 0,0 1,0l1,0l2,0" id="svg_1" stroke-width="1.5" stroke="#000" fill="none"/>
 </g>
</svg>