<svg width="100%" xmlns="http://www.w3.org/2000/svg" viewBox="10 130 580 200">
 <!-- Created with Method Draw - http://github.com/duopixel/Method-Draw/ -->
 <g>
  <title>background</title>
  <rect fill="transparent" id="canvas_background" height="402" width="582" y="-1" x="-1"/>
  <g display="none" overflow="visible" y="0" x="0" height="100%" width="100%" id="canvasGrid">
   <rect fill="url(#gridpattern)" stroke-width="0" y="0" x="0" height="100%" width="100%"/>
  </g>
 </g>
 <g>
  <title>Layer 1</title>
  <path stroke="#000" d="m45.007574,330.207587c0,0 1.178241,0 2.356482,0c2.356482,0 1.523339,-0.438529 2.356482,-1.497158c0.833143,-1.058629 2.356482,0 4.712963,-1.497158c0,0 1.634073,-1.373796 4.712963,-2.994316c2.177105,-1.145896 4.776,-0.809209 7.069445,-1.497158c2.564147,-0.769139 3.00352,-2.927198 7.069445,-4.491474c1.127685,-0.433869 4.351757,-2.184056 5.891204,-2.994316c3.265656,-1.718798 3.534722,-2.994316 5.891204,-2.994316c2.356482,0 3.173516,-2.184056 4.712963,-2.994316c2.177101,-1.145896 2.356482,-2.994316 3.534722,-2.994316c1.178241,0 3.534722,-1.497158 3.534722,-1.497158c1.178241,0 4.712963,-1.497158 4.712963,-1.497158c0,0 1.178241,0 4.712963,-2.994316c0,0 2.419523,0.687949 4.712963,0c2.564152,-0.769139 4.712963,-1.497158 5.891204,-1.497158c3.534722,0 3.660797,1.375898 8.247685,0c2.564152,-0.769139 4.712963,-1.497158 9.425926,-1.497158c1.178241,0 4.892344,1.145896 7.069445,0c3.078895,-1.62052 7.069445,-2.994316 8.247685,-2.994316c3.534722,0 5.891204,-1.497158 8.247685,-1.497158c1.178241,0 4.712963,-1.497158 4.712963,-1.497158c1.178241,0 2.356482,0 4.712963,0c0,0 0,0 1.178241,0c1.178241,0 3.534722,0 3.534722,0c0,-2.994316 1.178241,-2.994316 4.712963,-2.994316c0,0 0,0 1.178241,0c3.534722,0 3.534722,0 3.534722,0c2.356482,0 4.712963,0 4.712963,0c1.178241,0 4.712963,0 4.712963,0c2.356482,0 4.712963,0 7.069445,0c2.356482,0 7.069445,0 8.247685,0c3.534722,0 4.569872,-0.738801 8.247685,-1.497158c1.163031,-0.239825 4.351757,-0.686898 5.891204,-1.497158c3.265656,-1.718798 5.168791,-1.373796 8.247685,-2.994316c2.17711,-1.145896 5.198491,1.544264 9.425926,-1.497158c1.450004,-1.043186 4.892335,-0.351262 7.069445,-1.497158c3.078895,-1.62052 7.069445,-2.994316 9.425926,-2.994316c2.356482,0 7.099864,-1.017508 9.425926,-1.497158c3.677813,-0.758357 7.069445,-1.497158 9.425926,-1.497158c2.356482,0 7.069445,0 8.247685,0c3.534722,0 5.891204,0 8.247685,0c4.712963,0 5.891204,0 9.425926,0c2.356482,0 4.748273,-0.73172 9.425926,0c4.821625,0.754245 4.839029,0.12126 9.425926,1.497158c2.564134,0.769139 4.712963,1.497158 9.425926,1.497158c1.178241,0 4.712963,0 9.425926,0c1.178241,0 4.712963,0 5.891204,0c3.534722,0 4.712963,0 8.247685,0c2.356482,0 4.712963,0 9.425926,0c1.178241,0 4.712963,0 4.712963,0c4.712963,0 5.891204,0 9.425926,0c1.178241,0 4.763519,-0.433869 5.891204,0c4.065916,1.564276 4.712963,2.994316 8.247685,2.994316c1.178241,0 4.505311,0.728019 7.069445,1.497158c2.293449,0.687949 4.505311,0.728019 7.069445,1.497158c4.586898,1.375898 7.132477,-0.687949 9.425926,0c5.128303,1.538324 9.78467,0.70257 14.138889,2.994316c1.539429,0.81026 4.604301,2.240072 9.425926,2.994316c4.677653,0.73172 5.985771,-1.031946 9.425926,0c5.128303,1.538324 5.891204,2.994316 9.425926,2.994316c2.356482,0 4.604301,0.742914 9.425926,1.497158c2.338827,0.365837 4.712963,1.497158 9.425926,1.497158c1.178241,0 4.763519,-0.433869 5.891204,0c4.065916,1.564276 4.712963,2.994316 8.247685,2.994316c2.356482,0 4.775996,0.809209 7.069445,1.497158c2.564134,0.769139 7.069445,1.497158 8.247685,1.497158c3.534722,0 3.119382,1.455992 8.247685,2.994316c1.146706,0.343997 4.712963,0 7.069445,1.497158c2.356482,1.497158 7.12,1.063289 8.247685,1.497158c4.065916,1.564276 4.712963,2.994316 8.247685,2.994316c0,0 2.419514,0.809209 4.712963,1.497158c2.564134,0.769139 4.712963,1.497158 4.712963,1.497158c2.356482,0 4.712963,0 4.712963,0c1.178241,2.994316 2.356482,2.994316 4.712963,2.994316l0,0l0,0" id="svg_2" stroke-width="1.5" fill="none"/>
  <path d="m132.5,292.700012c0,0 0,0 0,-2c0,0 0,-1 0,-2c0,-3 0,-6 0,-8c0,-4 0,-7 0,-10c0,-4 0,-6 0,-10c0,-2 0,-4 0,-8.000015c0,-2 0,-4 0,-8c0,-4 0,-7 0,-10c0,-4 1.148056,-5.228363 0,-8c-1.082397,-2.613129 -2,-4 -2,-6c0,0 0,-2 0,-3c0,-1 0,-1 2,-1c0,0 1,0 4,0c1,0 4,0 8,0c4,0 8,0 12,0c4,0 10,0 16,0c4,0 10,0 16,0c4,0 8,0 12,0c2,0 4,0 8,0c0,0 1,0 2,0c2,0 2,0 2,1c0,1 0,3 0,3c0,1 0,2 0,4c0,1 -1.148056,2.228363 0,5c0.541199,1.306564 1,4 1,7c0,1 0,4 0,5c0,1 0,3 0,4c0,1 0,3 0,3c0,2 0,2 0,4c0,1 0,2 0,4.000015c0,0 0,2 0,2c0,2 0,2 0,3c0,1 0,3 0,4c0,1 1,3 1,4c0,1 0,3 0,3c2,2 2,2 2,4c0,0 0,2 0,2c0,2 0,2 0,3l0,1l0,0l0,2" id="svg_7" fill-opacity="null" stroke-opacity="null" stroke-width="1.5" stroke="#000" fill="none"/>
  <path d="m124.5,220.699997c0,0 0,-2 0,-2c0,-1 1,-2 2,-2c2,0 2.076126,-1.61731 3,-2c1.306564,-0.541199 2.097885,-2.824432 4,-4c2.551956,-1.577194 4.613831,-1.296997 7,-4c1.479843,-1.676331 1.296997,-2.613831 4,-5c1.676331,-1.479843 3.256577,-5.418854 8,-7c0.948685,-0.316223 3.520157,-2.323669 5,-4c2.386169,-2.703003 3.152237,-3.234634 5,-4c2.613129,-1.082397 2,-4 4,-5c2,-1 2,-3 2,-3c1,-1 2,-2 4,-4c0,0 -0.707108,-1.292892 0,-2c0.707108,-0.707108 2,0 4,-2c0,0 -0.707108,-1.292892 0,-2c0.707108,-0.707108 2.585785,-0.585785 4,-2c0.707108,-0.707108 0,-2 0,-2c1,0 1,-2 2,-2c0,0 2,0 2,0c0,2 0.415283,2.188751 1,3c1.849014,2.565369 3,3 3,3c1,2 2.824432,3.097885 4,5c0.525726,0.850647 2.917603,2.386871 4,5c0.765366,1.847763 0,2 1,4c1,2 3,2 3,3c0,1 0,3 0,3c1,2 1.486252,1.823746 2,4c0.229752,0.973251 2,2 2,2c0,2 -0.707108,3.292892 0,4c0.707108,0.707108 1.292892,1.292892 2,2c0.707108,0.707108 2,2 2,2c0,2 0,2 0,4c0,0 1.026749,1.770248 2,2c2.176254,0.513748 2,2 2,4c0,0 0.61731,0.076126 1,1c0.541199,1.306564 1.585785,-0.414215 3,1c1.414215,1.414215 0,2 0,2c0,1 -0.707108,1.292892 0,2c0.707108,0.707108 1.292892,-0.707108 2,0c1.414215,1.414215 2,2 2,2l0,1l0,1" id="svg_14" fill-opacity="null" stroke-opacity="null" stroke-width="1.5" stroke="#000" fill="none"/>
  <path d="m144.5,290.700012c0,0 0,0 0,-1c0,-1 0,-1 0,-3c0,0 0,-1 0,-2c0,0 0,-2 0,-2c0,-1 0,-2 0,-2c0,-2 0,-2 0,-3c0,-1 0,-1 0,-3c0,0 0,-1 0,-2c0,0 0,-2 0,-2c0,-1 0,-2 0,-2c0,-2 0,-2 0,-3c0,-1 0,-1 0,-3c0,0 0,-1 1,-1c1,0 3,0 3,0c0,0 2,0 4,0c0,0 0,0 1,0c1,0 3,0 3,0c0,0 1,0 2,0c2,0 2,0 2,0c1,0 1.076126,0.61731 2,1c2.613129,1.082397 2,3 2,4c0,0 0,2 0,2c0,2 0,2 0,4c0,1 0,2 0,2c0,2 0,2 0,3c0,1 0,1 0,3c0,0 0,1 0,2c0,0 0,2 0,2c0,1 0,2 0,2c0,2 0,2 0,3l0,0l0,1" id="svg_15" fill-opacity="null" stroke-opacity="null" stroke-width="1.5" stroke="#000" fill="none"/>
  <path d="m178.5,234.699997c0,0 2,0 2,2c0,0 0,1 0,2c0,0 0,2 1,2c0,0 -0.707108,1.292892 0,2c0.707108,0.707108 1,0 1,2c0,0 2,1 2,2c0,0 0,2 0,2c0,1 0,2 0,2c0,0 0,0 1,0c1,0 3,0 3,0c0,0 1,0 2,0c2,0 2,0 2,0c1,0 2,0 4,0c0,0 0,0 0,0c1,0 1,-1 2,-1c2,0 2,-1 2,-1c0,0 0,0 0,-2c0,0 0,-1 0,-2c0,0 0,-2 0,-3c0,-1 0,-1 0,-3c0,0 0,-1 0,-2c0,0 0,-2 0,-2c0,-1 0,-2 0,-2c0,-2 0,-2 0,-2c0,0 -2,0 -3,0c-1,0 -1,0 -1,0c-2,0 -3,0 -4,0c0,0 0,0 -2,0c-1,0 -2,0 -2,0c0,0 -2,0 -3,0c-1,0 -1,0 -1,0c-2,0 -3,0 -4,0c0,0 0,0 -2,0l0,2" id="svg_16" fill-opacity="null" stroke-opacity="null" stroke-width="1.5" stroke="#000" fill="none"/>
  <path d="m406.5,278.700012c0,0 0,-1 0,-2c0,0 -0.540497,-2.053497 -1,-4c-0.513733,-2.176239 -1,-4 -1,-8c0,-4 -0.95517,-6.549164 -2,-10.000015c-0.579559,-1.914185 0,-6 0,-8c0,-2 0.919006,-4.10701 0,-8c-0.513733,-2.176254 -1,-4 -1,-5c0,-1 0,-3 0,-4c0,-1 0,-3 0,-3c0,-1 0,-2 0,-2c0,-2 0,-3 0,-4l0,0l0,-2l0,0" id="svg_18" fill-opacity="null" stroke-opacity="null" stroke-width="1.5" stroke="#000" fill="none"/>
  <path d="m436.5,286.700012c0,0 0,-1 0,-2c0,0 0,-2 0,-3c0,-1 1.530731,-3.304474 0,-7c-1.082397,-2.613129 -1.789856,-5.07843 -3,-8c-0.855713,-2.065857 -1,-6 -1,-10c0,-4.000015 -2,-8.000015 -2,-11.000015c0,-3 0,-7 0,-9c0,-3 0,-4 0,-6c0,-2 0,-4 0,-5c0,-1 0.917603,-0.386871 2,-3c0.38269,-0.923874 0,-2 0,-2c0,-2 0,-2 0,-4c0,0 0,-2 0,-2c0,-1 0,-2 0,-2l0,-2l0,0" id="svg_19" fill-opacity="null" stroke-opacity="null" stroke-width="1.5" stroke="#000" fill="none"/>
  <path d="m398.5,225.699997c0,0 -1,0 -2,0c0,0 0,0 -3,0c-1,0 -4,0 -5,0c-4,0 -7,0 -8,0c-4,0 -8,0 -11,0c-3,0 -5.304474,0.530731 -9,-1c-2.613129,-1.082397 -3.878571,-2.493454 -7,-3c-0.987091,-0.160187 -1.448059,0.577194 -4,-1c-1.9021,-1.175568 -1,-2 -1,-2c-2,-1 -3.486267,-1.823746 -4,-4c-0.229767,-0.973251 -2,-2 -3,-4c-1,-2 -1,-4 -1,-6c0,-2 0,-4 0,-4c0,-2 0,-3 0,-4c0,-2 2.824432,-1.097885 4,-3c0.525726,-0.850647 2.585785,-1.585785 4,-3c0.707092,-0.707108 -0.707092,-1.292892 0,-2c0.707092,-0.707108 2,0 2,0c0,-2 2,-2 2,-3c0,-1 2.917603,-2.386871 4,-5c0.765381,-1.847763 1.714111,-4.21167 4,-7c0.896606,-1.093674 2.917603,-4.386871 4,-7c0.765381,-1.847763 1.026764,-3.770248 2,-4c2.176239,-0.513748 2,-1 2,-1c1,1 4,3 6,5c2,2 4.585785,1.585785 6,3c0.707092,0.707108 2,1 4,1c0,0 0.076111,0.38269 1,0c1.306549,-0.541199 2.520172,-2.323669 4,-4c2.386169,-2.703003 3.837708,-2.837723 7,-6c1.581146,-1.581146 4.186005,-2.692551 6,-4c2.294525,-1.653809 4,-2 6,-3c2,-1 3.647491,-1.972519 8,-3c0.973236,-0.229752 4,0 5,0c3,0 4,0 7,0c0,0 1.386871,0.917603 4,2c1.847748,0.765366 3.647491,0.972519 8,2c1.946503,0.459503 5.07843,1.789856 8,3c2.065857,0.855713 3.0979,1.824432 5,3c0.850647,0.525726 3,0 3,0c0,0 1,0 2,0c2,0 2,0 2,0c1,1 1.878693,-0.121323 4,2c1.414215,1.414215 0.692535,4.186005 2,6c1.653809,2.29454 2.458801,4.693436 3,6c1.148041,2.771637 1,4 1,6c0,0 0,1 0,2c0,0 0,2 0,2c0,1 -1,2 -1,2c0,2 -1,3 -1,4c0,2 0,2 0,4c0,0 0,2 0,3c0,1 -0.38269,3.076126 0,4c0.541199,1.306564 1.474274,3.149353 2,4c1.175568,1.902115 2,3 2,5c0,0 0,2 0,3c0,1 0,3 0,3c0,2 -0.824432,3.097885 -2,5c-0.525726,0.850647 -0.076111,2.61731 -1,3c-1.306549,0.541199 -1,2 -1,2c0,0 -2,2 -3,2c-1,0 -0.292908,1.292892 -1,2c-1.414215,1.414215 -3.292908,-0.707108 -4,0c-1.414215,1.414215 -2.076111,1.61731 -3,2c-1.306549,0.541199 -1,2 -3,2c-1,0 -2,0 -2,0c0,2 -2.585785,0.585785 -4,2c-0.707092,0.707108 -2,2 -4,2l0,0l0,0l-2,0" id="svg_20" fill-opacity="null" stroke-opacity="null" stroke-width="1.5" stroke="#000" fill="none"/>
  <path d="m258.5,270.700012c0,0 -1,0 -1,-1c0,-1 0,-1 0,-3c0,-1 0,-2 0,-4c0,-2 0,-5 0,-8.000015c0,-2 -0.68927,-5.080246 0,-8c0.513733,-2.176254 1,-6 1,-9c0,-3 2,-5 2,-7c0,-4 0,-6 0,-8c0,-2 0,-6 0,-8c0,-2 0,-6 0,-9c0,-3 0,-7 0,-9c0,-4 0,-6 0,-10c0,-1 0,-4 0,-6c0,0 0,-2 0,-3c0,-1 0,-1 0,-3c0,-1 0,-2 0,-2c0,-2 0,-2 0,-3c0,-1 0,-1 0,-3c0,0 0,-1 0,-2c0,0 0,-2 0,-2c0,-1 0,-2 0,-2c0,-2 0,-2 0,-3c0,-1 0,-1 0,-3c0,0 0,-1 0,-2c0,0 0,0 0,0c1,0 2,0 4,0c0,0 0,-2 1,-2c1,0 1.585785,0.585785 3,2c0.707092,0.707108 0,2 0,2c0,2 0,2 0,2c0,1 0,2 0,2c0,2 0,3 0,4c0,2 0,2 0,3c0,1 0,3 0,4c0,1 1,1 1,3c0,1 0,2 0,4c0,1 0,2 0,4c0,0 0.292908,1.292892 1,2c1.414215,1.414215 0,3 0,4c0,2 0,4 0,6c0,2 0,4 0,6c0,4 0,7 0,10c0,1 0,2 0,4c0,2 0,2 0,4c0,1 0,2 0,2c0,2 0,3 0,4c0,2 0,4 0,6c0,1 -0.458801,3.693436 -1,5c-1.148041,2.771637 0,4 0,5c0,2 0,4 0,4c-1,2 -1,3 -1,4c0,0 0,2 0,2c0,1 0,2 0,2c0,2 0,2 0,3c0,1 0,1 0,3.000015c0,0 0,1 0,2c0,0 0,2 0,3c0,1 0,1 0,3c0,0 0,1 0,2c0,0 0,2 0,2l0,1l0,1" id="svg_21" fill-opacity="null" stroke-opacity="null" stroke-width="1.5" stroke="#000" fill="none"/>
  <path d="m257.5,134.699997c0,0 -1,0 -1,0c0,0 -2.292892,-0.707108 -3,0c-1.414215,1.414215 -0.292892,1.292892 -1,2c-0.707108,0.707108 0,2 0,2c0,0 0,2 0,2c0,1 0,2 0,2c0,2 0,2 0,3c0,1 1.292892,0.292892 2,1c1.414215,1.414215 2,2 2,2c0,1 0,2 1,2c0,0 1,0 3,2c0,0 0,0 1,0c1,0 1,1 3,1c0,0 0,0 1,0c1,0 3,0 3,0c0,0 1,0 2,0c2,0 1.292908,-0.292892 2,-1c0.707092,-0.707108 2,0 2,0c2,-2 2,-2 2,-3c0,-1 0,-1 0,-3c0,0 0,-1 0,-2c0,0 -0.585785,-0.585785 -2,-2c-0.707092,-0.707108 0,-2 -1,-2c0,0 -1,-2 -1,-2c0,-1 0.707092,-1.292892 0,-2c-1.414215,-1.414215 -3,0 -3,0c-1,0 -1,-2 -1,-2c-2,0 -3.292908,0.707108 -4,0c-0.707092,-0.707108 0,-1 0,-1c-2,0 -3.292908,0.707108 -4,0c-0.707092,-0.707108 0,-1 -2,-1c-1,0 -2,0 -2,0l0,0" id="svg_25" fill-opacity="null" stroke-opacity="null" stroke-width="1.5" stroke="#000" fill="none"/>
  <path d="m268.5,156.699997c0,0 0,0 0,0c1,0 1.026764,-0.229752 2,0c2.176239,0.513748 2,1 2,1c1,0 2,0 4,1c0,0 1,0 4,0c0,0 1,0 2,0c2,0 2,0 3,0c1,0 3,0 3,0c1,0 2,0 4,0c0,0 1,0 2,0c2,0 2,0 3,0c1,0 3,0 3,0c0,0 1,0 2,0c2,0 2,0 2,0c1,0 2,0 4,0c0,0 0.076111,0.38269 1,0c1.306549,-0.541199 3,-1 3,-1c0,0 1,0 2,0c2,0 2,0 2,0c1,0 2,0 4,0c0,0 0,0 0,1c0,0 0.292908,1.292892 1,2c0.707092,0.707108 0,2 0,2c0,2 0.458801,1.693436 1,3c0.38269,0.923874 -1.414215,1.585785 0,3c1.414215,1.414215 2,1 2,2c0,0 0,2 0,2c0,1 0,2 0,2c0,2 0,2 0,3c0,1 0,3 0,3c0,1 0,2 0,2c0,2 0,2 0,3c0,1 0,1 0,3c0,0 0,1 0,2c0,0 0,2 0,2c0,1 0,2 0,2c0,2 0,2 0,3c0,1 0,3 0,3c0,1 0,2 0,2c0,2 0,2 0,2c0,0 -2,0 -3,0c-1,0 -1,0 -3,0c-1,0 -2,0 -2,0c-3,0 -4,0 -4,0c-3,0 -4,0 -4,0c-2,0 -3,0 -4,0c0,0 -2,0 -4,0c0,0 -3,0 -4,0c-2,0 -4,-2 -6,-2c-2,0 -2,0 -5,0c-1,0 -3,0 -4,0c-1,0 -1,0 -3,0c-1,0 -2,0 -2,0c0,0 -2,0 -3,0c-1,0 -1,0 -1,0c-2,0 -3,0 -4,0l0,-1l0,-1" id="svg_26" fill-opacity="null" stroke-opacity="null" stroke-width="1.5" stroke="#000" fill="none"/>
  <path d="m284.5,158.699997c0,0 0,2 0,2c0,1 0,2 0,2c0,2 0,2 0,3c0,1 0,1 0,3c0,0 0,1 0,2c0,0 0,2 0,2c0,1 0,2 0,2c0,0 0,0 0,0c-2,0 -3,0 -4,0c0,0 0,0 -2,0c-1,0 -2,0 -2,0c0,0 -2,0 -2,0c-1,0 -2,0 -2,0l0,0l-2,0l-1,0" id="svg_27" fill-opacity="null" stroke-opacity="null" stroke-width="1.5" stroke="#000" fill="none"/>
  <path d="m292.5,156.699997c0,0 0,1 0,2c0,0 0,2 0,3c0,1 0,1 0,3c0,0 0,1 0,2c0,0 0,2 0,2c0,1 0,2 0,2c0,2 -0.707092,2.292892 0,3c0.707092,0.707108 2,0 4,0c0,0 0.076111,-0.38269 1,0c1.306549,0.541199 3,1 3,1c0,0 1,0 2,0c2,0 2,0 2,0c1,0 2,0 4,0c0,0 0,0 1,0c1,0 3,0 3,0c0,0 1,0 2,0c2,0 2,0 2,0c1,0 2,0 4,0l0,0" id="svg_29" fill-opacity="null" stroke-opacity="null" stroke-width="1.5" stroke="#000" fill="none"/>
  <path d="m284.5,200.699997c0,0 0,-2 0,-2c0,-1 0,-2 0,-2c0,-2 0,-2 0,-3c0,-1 0,-1 0,-3c0,0 0,-1 0,-2c0,0 0,-2 -2,-2c0,0 -1,0 -2,0c0,0 0,-1 -2,-1c-1,0 -2,0 -2,0c0,0 -2,0 -3,0c-1,0 -1,0 -1,0l-2,0" id="svg_30" fill-opacity="null" stroke-opacity="null" stroke-width="1.5" stroke="#000" fill="none"/>
  <path d="m293.5,200.699997c0,0 0,0 0,-2c0,0 0,-1 0,-2c0,0 0,-2 0,-2c0,-1 0,-2 0,-2c0,-2 0,-2 0,-3c0,-1 -1,-1 -1,-1c0,-2 1,-2 2,-2c2,0 2,0 2,0c1,0 2,0 4,0c0,0 0,0 1,0c1,0 3,0 3,0c0,0 1,0 2,0c2,0 2,0 2,0c1,2 2,2 4,2c0,0 0,0 0,0c1,0 2,0 4,0c0,0 0,0 1,0c1,0 3,0 3,0l0,0l1,0" id="svg_32" fill-opacity="null" stroke-opacity="null" stroke-width="1.5" stroke="#000" fill="none"/>
  <path d="m270.5,157.699997c0,0 -1,0 -1,1c0,0 0,2 0,2c0,1 0,2 0,2c0,2 0,2 0,3c0,1 1,1 1,1c0,2 -1,3 0,3c1,0 0,-1 0,-3c0,0 0,-2 0,-2c0,-2 0,-2 0,-4c0,0 0,-2 0,-2c2,0 2,2 2,2c0,1 0,2 0,4c0,0 0,1 0,2c0,0 0,2 0,2c0,1 0,2 0,1c0,-1 0,-3 0,-3c0,-1 0,-2 0,-2c0,-2 1,-4 0,-4c-1,0 0,2 0,2c0,2 0,2 0,3c0,1 0,1 0,3c0,0 0,1 1,1c1,0 0,-1 1,-3c0,0 0.824432,-0.097885 2,-2c1.051453,-1.701309 0,-2 0,-3c0,-1 0,0 0,1c0,0 0,2 0,3c0,1 0,1 0,3c0,0 0,1 0,2c0,0 1,2 1,0c0,0 0,-1 0,-2c0,-2 0,-4 0,-6c0,0 0,-1 0,-2c0,0 1,0 1,1c0,1 2,1 2,3c0,0 0,1 0,1c0,1 0,1 0,3c0,0 0,-2 0,-2c0,-1 0,-2 0,-2c0,-2 1,-3 0,-3c-1,0 0,1 0,3c0,1 0,2 0,2c0,2 0,2 0,3c0,1 0,-1 0,-1c0,-2 0,-4 0,-4c0,-2 0,0 0,1c0,1 0,3 0,4c0,1 0,1 0,3c0,0 0,1 0,0c0,0 0,-2 0,-2c0,-1 0,-2 0,-2c-2,-2 -3.292908,-2.707108 -4,-2c-1.414215,1.414215 0,2 0,3c0,1 0,1 0,0c0,-1 0,-4 0,-7c0,-2 -0.824432,-3.097885 -2,-5c-0.525726,-0.850647 -0.458801,-0.306564 -1,1c-0.765381,1.847763 -1,3 -1,4c0,2 0,2 0,3c0,1 1,0 0,0c-1,0 0,1 0,3c0,0 0.292908,1.707108 1,1c0.707092,-0.707108 0,-3 0,-3c0,0 0,2 0,2c0,1 1,2 1,2c2,0 2,2 2,2l0,0" id="svg_40" stroke-width="1.5" stroke="#D82933" fill="none"/>
  <path d="m292.5,158.699997c0,0 0,0 0,2c0,0 0,1 0,2c0,0 0,2 0,2c0,1 0,2 0,2c0,2 -0.707092,2.292892 0,3c0.707092,0.707108 1,1 1,0c0,-1 0,-3 0,-3c0,-2 0,-2 0,-4c0,0 0,-1 1,-2c0,0 0,-2 0,-3c0,-1 0,-1 0,0c0,1 0,1 0,3c0,0 0,1 0,2c0,0 0,2 0,2c0,1 0,2 0,2c0,2 -1,3 0,3c1,0 0,-1 0,-3c0,-1 0,-2 0,-4c0,-1 0.585785,-3.414215 2,-2c0.707092,0.707108 0,2 0,4c0,1 0,2 0,4c0,1 1,2 1,2c0,2 0.458801,0.306564 1,-1c0.38269,-0.923874 2,-3 2,-3c0,-2 0,-2 0,-4c0,0 1,-2 0,-2c-1,0 0,2 0,2c0,2 0,3 0,4c0,2 -1,3 0,3c1,0 0.493469,-0.878555 1,-4c0.160187,-0.987091 0,-3 0,-5c0,-2 1,-3 0,-3c-1,0 -1,1 -1,1c0,2 0,3 0,4c0,0 0,2 0,2c0,1 0,0 0,0c0,-2 -0.824432,-2.097885 -2,-4c-1.051453,-1.701309 -1,-2 -2,-2c0,0 0,2 0,2c0,2 0,2 0,4c0,0 0,0 0,-2c0,-1 0.292908,-1.292892 1,-2c1.414215,-1.414215 0,-2 0,-2c0,2 0,3 0,4c0,2 0,3 0,4c0,0 0,2 0,2c1,0 3,0 3,0c0,0 0,-2 0,-2c0,-1 0,-2 0,-4c0,0 0,0 0,2c0,0 0,2 0,2c0,2 0,2 1,2c0,0 0,-2 0,-3c0,-1 0,-3 0,-4c0,-1 0,-3 0,-1c0,1 0,2 0,4c0,1 0,2 0,2c0,0 0,-1 0,-2c0,0 0,-2 0,0c0,1 -0.051453,2.298691 1,4c1.175568,1.902115 2,2 2,2c0,0 0,0 0,-2c0,0 1,-2 1,-4c0,0 0,-2 0,-2c0,0 1,2 1,3c0,1 0,1 0,3c0,0 2,0 2,-2c0,0 0,-1 0,-2c0,0 0,-2 0,-2c0,0 -0.824432,1.097885 -2,3c-0.525726,0.850647 0,1 0,3c0,0 0,0 0,-2c0,-2 0,-4 0,-4c0,-2 -1,-2 -1,-4c0,0 0,0 0,2c0,0 -0.458801,0.693436 -1,2c-0.765381,1.847763 0,3 0,4c0,2 -0.923889,2.61731 0,3c1.306549,0.541199 1.486267,-0.823746 2,-3c0.229767,-0.973251 2,-2 2,-4c0,0 0,-1 0,-2c0,0 0,1 0,2c0,2 1.458801,2.693436 2,4c0.765381,1.847763 2,2 2,3c0,1 0.458801,1.306564 1,0c0.38269,-0.923874 0,-3 0,-3c0,-2 0,-2 0,-4c0,0 0,0 0,2c0,0 0,1 0,2c0,2 0,2 0,4c0,0 0.486267,2.176254 1,0c0.229767,-0.973251 0,-2 0,-4c0,-1 0,-2 0,-4c0,-1 0,-2 0,-2c2,0 2,1 2,2c0,2 0,2 0,4c0,2 0.292908,2.292892 1,3c0.707092,0.707108 -0.414215,-1.585785 1,-3c1.414215,-1.414215 2,-2 2,-2c0,-2 0,0 0,0c0,1 0,2 0,2c0,2 0,2 0,2c0,-2 1.051453,-4.298691 0,-6c-1.175568,-1.902115 -2,-2 -2,-2c-1,0 -2,0 -2,0c0,2 -1.234619,2.152237 -2,4c-0.541199,1.306564 -2,2 -2,2c0,0 0,-2 0,-2c0,-2 0,-3 0,-4c0,-2 -0.585785,-3.414215 -2,-2c-1.414215,1.414215 -1.486267,3.823746 -2,6c-0.229767,0.973251 0,2 0,2c0,2 0,2 0,2c0,-2 0,-3 0,-4c0,-2 -2,-2 -2,0c0,0 -1,2 -1,2c0,2 -1,3 -1,2c0,0 0,-2 0,-3c0,-1 0,-3 0,-3c0,0 0,2 0,3c0,1 0,3 0,4c0,1 0,1 1,1c0,0 0.923889,-1.61731 0,-2c-1.306549,-0.541199 -1,2 -1,2c0,2 0,2 -2,2c0,0 0,-2 0,-3c0,-1 0,-1 0,-3c0,0 0,-1 0,0l0,0" id="svg_41" stroke-width="1.5" stroke="#D82933" fill="none"/>
  <path d="m280.5,188.699997c0,0 0.458801,-0.306564 1,1c0.38269,0.923874 0,3 0,3c0,1 0,2 0,2c0,2 1,2 1,2c0,0 -1,-2 -1,-2c0,-1 0,-2 0,-2c0,-2 0,-3 0,-4c0,0 0,0 0,1c0,1 0,1 0,3c0,0 0,1 0,2c0,2 0.923889,2.61731 0,3c-1.306549,0.541199 -1,-1 -1,-3c0,-1 0,-2 0,-4c0,0 0,0 0,2c0,0 0,1 0,2c0,2 0,2 0,3c0,1 0,-1 0,-1c0,-2 0,-3 0,-4c0,0 -2,0 -2,1c0,1 0,1 0,3c0,0 -0.292908,1.707108 -1,1c-0.707092,-0.707108 -1,-1 -1,-4c0,-1 0,-4 0,-5c0,-2 -2,-3 -2,-2c0,0 0,2 0,3c0,1 0,1 0,3c0,1 0,2 0,2c0,2 0,2 0,2c0,-2 0,-3 0,-4c0,-2 1,-3 0,-3c-1,0 0,1 0,3c0,0 0,2 0,2c0,2 -1,3 0,3c1,0 0,-3 0,-3c0,-2 -1,-2 -1,-1c0,1 -3,3 -1,3c2,0 0,-2 0,-4c0,0 1,-3 0,-3c-1,0 0,1 0,3c0,1 0,2 0,4c0,0 0,0 0,-2c0,-1 0,-4 0,-6c0,-2 2,-4 0,-4c-1,0 1,2 1,4c0,1 1,2 1,2c0,2 2,2 2,3c0,1 0,1 0,1c0,2 0,2 0,2c1,0 1,-2 1,-2c0,-2 1,-4 1,-5c0,-1 0,-1 0,-1c0,2 0,2 0,5c0,1 0,3 0,4l0,1l0,-1l0,-1" id="svg_42" stroke-width="1.5" stroke="#D82933" fill="none"/>
  <path d="m296.5,190.699997c0,0 0,0 0,2c0,0 0,1 0,2c0,0 0,2 0,3c0,1 0,1 0,3c0,0 0,1 0,2c0,0 0,2 0,2c0,0 0,-2 0,-2c0,-2 -2,-4 -2,-5c0,-1 0,-3 0,-5c0,0 -1,-2 -1,-2c0,-1 0,0 0,0c1,2 0.292908,3.292892 1,4c1.414215,1.414215 2,2 2,2c0,0 -0.765381,-0.152237 0,-2c0.541199,-1.306564 1,-2 1,-5c0,-1 0.486267,-3.176254 1,-1c0.459503,1.946503 0,4 0,5c0,1 0,3 0,3c0,1 0,0 0,-2c0,-2 0,-2 0,-4c0,-1 0,-2 0,-2c0,0 0,2 0,2c0,2 0,4 0,6c0,1 0,2 0,2c0,0 0.917603,-1.386871 2,-4c0.38269,-0.923874 0,-2 0,-4c0,-2 0,-2 0,-4c0,0 0,2 0,3c0,1 0,4 0,5c0,2 -0.38269,2.076126 0,3c0.541199,1.306564 1.61731,-0.076126 2,-1c1.082397,-2.613129 2,-3 2,-4c0,-2 0,-3 0,-4c0,0 0,1 0,2c0,2 0,3 0,4c0,2 0,2 0,3c0,1 0,0 0,-1c0,0 0,-2 0,-3c0,-1 2,-3 0,-3c-2,0 -1.540497,2.053497 -2,4c-0.513733,2.176254 -1,2 -1,3c0,1 0,1 0,3c0,0 0,0 0,-2c0,-2 0,-4 0,-5c0,-1 0,-3 0,-1c0,0 0,2 0,2c0,2 0,2 0,2c1,-2 3,-3 3,-4c0,-2 0,-3 0,-3c0,1 -0.459503,3.053497 0,5c0.513733,2.176254 1,2 1,4c0,0 -0.414215,0.585785 1,2c1.414215,1.414215 2,0 2,-2c0,-1 0,-2 0,-4c0,-1 0,-2 0,-1c0,1 0,1 0,3c0,0 -1,2 0,2c1,0 0,-2 0,-4c0,-1 0,-2 0,-2c0,-2 0,-2 0,0c0,1 -2,2 -2,4c0,2 0,2 0,4c0,0 0,1 0,0c0,0 0,-2 0,-4c0,-2 0,-3 0,-4c0,-2 2,-2 2,0c0,0 0,2 0,4c0,2 0,4 0,4c0,1 1,2 1,2c1,0 3,0 3,-1c0,-1 -0.160187,-3.012909 0,-4c0.506531,-3.121445 1,-3 1,-5c0,0 0,-2 0,0c0,0 1,2 1,2c2,6 2,6 2,6c0,0 0.458801,-1.693436 1,-3c0.38269,-0.923874 0,-3 0,-3c0,-1 0,-2 0,-1c0,1 -0.458801,2.693436 -1,4c-0.38269,0.923874 0,3 0,3c0,0 1,-2 1,-4c0,-2 0,-3 0,-4c0,0 -0.414215,-1.414215 1,0c1.414215,1.414215 2,1 2,2c0,2 0,3 0,4c0,0 1.292908,0.707108 2,0c0.707092,-0.707108 0,-2 0,-2c0,-2 -0.292908,-0.707108 -1,0c-1.414215,1.414215 0,4 0,4c-1,1 -1,0 -1,-2c0,-2 0,-4 0,-6c0,-2 0,-4 0,-4c0,-2 -2.149353,-2.525726 -3,-2c-1.9021,1.175568 0.75412,3.566269 -1,6c-1.84903,2.565369 -4,2 -4,4c0,1 -1.61731,1.923874 -2,1c-0.541199,-1.306564 0.414215,-1.585785 -1,-3c-0.707092,-0.707108 -1,0 -1,2c0,0 -2.292908,1.292892 -3,2c-1.414215,1.414215 0,2 0,2c0,-2 0,-4 0,-6c0,-2 -0.458801,-3.693436 -1,-5c-0.38269,-0.923874 0,0 0,1c0,2 -2,3 -2,4c0,2 -1,4 -1,4c0,2 -1,2 -1,0c0,0 0,-2 0,-2c0,-2 0,-3 0,-4c0,0 -1.61731,0.076126 -2,1c-0.541199,1.306564 -1,1 -1,3c0,0 0,1 0,0c0,0 0,-2 0,-2c0,0 0,2 0,3c0,1 0,3 0,3c0,0 1,-2 1,-3c0,-1 2,-3 2,-4c0,-1 0,-1 0,-1c0,0 1,2 1,2c1,2 1.824432,1.097885 3,3c0.525726,0.850647 0,1 0,1c1,0 1,0 1,-1c0,-1 1,-1 1,-3c0,0 0.459503,0.053497 0,2c-0.513733,2.176254 -1,2 -1,4c0,0 0.486267,0.176254 1,-2c0.459503,-1.946503 2,-2 2,-5c0,-1 0,-1 0,0c0,1 -0.414215,3.585785 1,5c2.121307,2.121323 3,2 3,2c0,0 1,0 2,0c0,0 0.824432,-1.097885 2,-3c0.525726,-0.850647 0,-3 0,-3c0,-1 0,-2 0,-1c0,1 0,3 0,3c0,1 0,2 0,0c0,0 0,-2 0,-4c0,-2 0,-2 0,-3c0,-1 -2,-1 -3,-1c-1,0 -1,0 -1,0c-2,1 -4,2 -4,2c0,2 0,2 0,2c0,-2 0.707092,-3.292892 0,-4c-1.414215,-1.414215 -3.458801,-0.306564 -4,1c-0.38269,0.923874 0,1 -2,3c0,0 0,1 2,1c0,0 0,-1 0,-1c0,-2 0,-2 0,-3c0,0 0,1 0,1c0,2 0,2 0,3c0,1 1,1 2,1c2,0 2,2 2,2c0,0 0,1 0,1c0,1 -2,1 -3,1c-1,0 -1,2 -1,2l0,0" id="svg_43" stroke-width="1.5" stroke="#D82933" fill="none"/>
 </g>
</svg>