<svg width="100%" xmlns="http://www.w3.org/2000/svg" viewBox="0 0 580 400">
 <!-- Created with Method Draw - http://github.com/duopixel/Method-Draw/ -->
 <g>
  <title>background</title>
  <rect fill="transparent" id="canvas_background" height="402" width="582" y="-1" x="-1"/>
  <g display="none" overflow="visible" y="0" x="0" height="100%" width="100%" id="canvasGrid">
   <rect fill="url(#gridpattern)" stroke-width="0" y="0" x="0" height="100%" width="100%"/>
  </g>
 </g>
 <g>
  <title>Layer 1</title>
  <ellipse stroke="#fde43a" ry="59.499995" rx="59.499995" id="svg_1" cy="178.722565" cx="291.999995" stroke-width="7.5" fill="#fde43a"/>
  <path d="m394.5,154.399994c0,0 2,0 2,0c0,0 0,0 2,0c2,0 2.304474,0.530731 6,-1c1.306549,-0.541199 4.152252,-0.234634 6,-1c2.613129,-1.082397 5.796997,-2.2565 7,-3c2.690002,-1.662506 4.549164,-1.95517 8,-3c2.871277,-0.869354 4.878571,-1.493454 8,-2c2.961273,-0.480545 4,-2 7,-2c1,0 2,-1 4,-2c0,0 0,0 0,0c1,0 1,-2 2,-2c2,0 2,-1 2,-1c1,-1 2,-1 4,-1c0,0 0.152252,0.765366 2,0c2.613129,-1.082397 2,-2 2,-2l0,0" id="svg_7" stroke-width="2" stroke="#fde43a" fill="none"/>
  <path d="m340.5,98.400002c0,0 0,0 0,0c1,0 2.585785,1.414215 4,0c0.707092,-0.707108 2.346191,-1.70546 4,-4c1.307465,-1.813995 2.948547,-4.298698 4,-6c2.351135,-3.80423 5.648865,-2.19577 8,-6c1.051453,-1.701302 -0.07193,-2.611046 2,-5c1.465088,-1.689247 2.2565,-2.796997 3,-4c1.662506,-2.689995 3,-3 3,-5c0,-2 0.418854,-4.418861 2,-6c1.581146,-1.581139 2,-2 2,-2c1,-2 2,-3 4,-4c0,0 0.053497,-1.540493 2,-2c2.176239,-0.513744 2.149353,-1.47427 3,-2c1.9021,-1.175571 1.824432,-1.097885 3,-3c0.525726,-0.850651 0,-1 0,-1c1,-2 2,-2 2,-2c2,0 2,-1 2,-1c1,0 2,-1 4,-1c0,0 -1.414215,-0.585785 0,-2c0.707092,-0.707108 2,0 2,-1l2,0" id="svg_8" stroke-width="2" stroke="#fde43a" fill="none"/>
  <path d="m288.5,93.400002c0,0 0,-1 0,-1c0,-2 0.459503,-4.053505 0,-6c-1.027496,-4.352501 -3.496216,-5.907784 -4,-10c-0.733093,-5.955048 0.919006,-8.107002 0,-12c-1.027496,-4.352501 -3.496216,-7.907787 -4,-12c-0.488739,-3.970032 0,-8 0,-12c0,-3 -2,-7 -2,-11.000002c0,-3 -1,-5 -1,-9l0,-2l0,0l0,-1" id="svg_9" stroke-width="2" stroke="#fde43a" fill="none"/>
  <path d="m236.5,105.400002c0,0 0,0 0,0c-3,-1 -5.863251,-3.146812 -8,-5c-3.777267,-3.276009 -8.221909,-5.685638 -14,-10c-6.258163,-4.672829 -12.899353,-10.119453 -20,-16c-9.863037,-8.168274 -17.899353,-14.119453 -25,-20c-4.931519,-4.084137 -8.410919,-6.692379 -13,-10c-3.627991,-2.614902 -6,-4 -8,-6l0,0l0,-1" id="svg_10" stroke-width="2" stroke="#fde43a" fill="none"/>
  <path d="m200.5,161.399994c0,0 -2,1 -4,1c-2,0 -4.10701,1.080994 -8,2c-4.352509,1.027481 -8.06134,1.824615 -14,4c-5.056595,1.852264 -10.063339,3.774155 -14,5c-8.157654,2.540222 -12,5 -16,7c-4,2 -8,4 -12,6c-4,2 -7.485313,4.851135 -12,7c-3.722908,1.771988 -4,3 -4,3c-2,1 -2,2 -3,2l0,0" id="svg_11" stroke-width="2" stroke="#fde43a" fill="none"/>
  <path d="m244.5,268.399994c0,0 0.38269,1.076111 0,2c-1.082397,2.613129 -4,4 -6,7c-2,3 -4.692551,7.186005 -6,9c-3.307617,4.589081 -8.220215,6.794891 -11,10c-3.276016,3.777283 -5.769516,5.390991 -8,9c-1.662506,2.690002 -2.897079,5.597382 -5,9c-2.351135,3.80423 -7.450485,5.4505 -10,8c-2.549515,2.5495 -6.132004,5.75531 -10,8c-3.118484,1.809723 -4,4 -6,4l-1,2l0,0" id="svg_12" stroke-width="2" stroke="#fde43a" fill="none"/>
  <path d="m306.5,276.399994c0,0 2,0 2,2c0,2 2.665375,3.506256 4,6c2.406006,4.495667 2.551086,9.214539 4,14c2.089661,6.901703 6.03302,11.403168 8,16c2.392944,5.592285 4,10 6,14c2,4 5.130646,6.128723 6,9c1.04483,3.450836 3.31076,5.534912 5,7c2.388947,2.07193 3,2 3,4l1,0" id="svg_13" stroke-width="2" stroke="#fde43a" fill="none"/>
  <path d="m368.5,250.399994c0,0 1.705475,0.346191 4,2c3.627991,2.614899 8.123688,5.802856 13,9c7.193939,4.716675 15.526428,12.655609 25,19c6.698822,4.486145 14.407898,9.955231 22,14c7.540619,4.017334 11.920349,6.167969 16,8c4.912567,2.206055 9.132019,3.75531 13,6c3.118469,1.809723 7,4 9,6c2,2 6,4 7,6l3,2l1,0l1,2" id="svg_14" stroke-width="2" stroke="#fde43a" fill="none"/>
 </g>
</svg>