<?xml version="1.0" standalone="no"?>
<!DOCTYPE svg PUBLIC "-//W3C//DTD SVG 20010904//EN"
 "http://www.w3.org/TR/2001/REC-SVG-20010904/DTD/svg10.dtd">
<svg version="1.0" xmlns="http://www.w3.org/2000/svg"
 width="16.000000pt" height="16.000000pt" viewBox="0 0 16.000000 16.000000"
 preserveAspectRatio="xMidYMid meet">
<metadata>
Created by potrace 1.11, written by Peter Selinger 2001-2013
</metadata>
<g transform="translate(0.000000,16.000000) scale(0.006400,-0.006400)"
fill="#000000" stroke="none">
<path d="M1165 2356 c-31 -31 -38 -71 -33 -206 3 -108 4 -113 31 -136 40 -34
105 -33 138 2 23 25 24 31 24 171 l0 145 -28 24 c-38 33 -99 33 -132 0z"/>
<path d="M443 2056 c-22 -19 -28 -32 -28 -67 0 -41 4 -46 100 -136 96 -89 102
-93 146 -93 59 0 91 31 91 86 0 34 -9 46 -99 136 -94 92 -102 98 -141 98 -29
0 -49 -7 -69 -24z"/>
<path d="M1808 1982 c-89 -89 -98 -102 -98 -136 0 -52 35 -86 90 -86 36 0 49
8 128 78 112 102 117 107 117 154 0 54 -38 88 -98 88 -39 0 -46 -6 -139 -98z"/>
<path d="M1100 1810 c-243 -61 -420 -290 -420 -543 0 -238 174 -461 405 -522
90 -23 235 -20 316 8 185 63 316 203 364 392 54 211 -40 454 -223 579 -101 69
-166 89 -297 92 -60 2 -126 -1 -145 -6z m250 -196 c60 -19 136 -78 177 -138
98 -143 79 -341 -44 -464 -143 -143 -361 -143 -503 -2 -143 144 -145 371 -3
514 102 104 233 136 373 90z"/>
<path d="M145 1335 c-35 -34 -35 -96 0 -130 23 -24 28 -25 173 -25 146 0 149
0 173 26 32 35 32 93 0 128 -24 26 -27 26 -173 26 -145 0 -150 -1 -173 -25z"/>
<path d="M1975 1335 c-19 -18 -25 -35 -25 -65 0 -30 6 -47 25 -65 23 -24 29
-25 165 -25 82 0 150 5 162 11 11 6 26 26 34 45 12 29 12 39 0 68 -8 19 -23
39 -34 45 -12 6 -80 11 -162 11 -136 0 -142 -1 -165 -25z"/>
<path d="M614 777 c-39 -22 -175 -152 -190 -180 -32 -60 14 -127 87 -127 35 0
48 9 131 86 106 97 110 103 110 152 0 65 -78 104 -138 69z"/>
<path d="M1755 778 c-32 -19 -44 -40 -45 -77 0 -31 11 -46 98 -133 92 -92 101
-98 139 -98 71 0 118 60 93 120 -6 14 -51 63 -101 109 -95 88 -139 107 -184
79z"/>
<path d="M1163 536 c-27 -23 -28 -28 -31 -136 -5 -135 2 -175 33 -206 33 -33
94 -33 132 0 l28 24 0 145 c0 140 -1 146 -24 171 -33 35 -98 36 -138 2z"/>
</g>
</svg>
