<svg width="100%" xmlns="http://www.w3.org/2000/svg" viewBox="0 0 580 350">
 <!-- Created with Method Draw - http://github.com/duopixel/Method-Draw/ -->
 <g>
  <title>background</title>
  <rect fill="#fff" id="canvas_background" height="402" width="582" y="-1" x="-1"/>
  <g display="none" overflow="visible" y="0" x="0" height="100%" width="100%" id="canvasGrid">
   <rect fill="url(#gridpattern)" stroke-width="0" y="0" x="0" height="100%" width="100%"/>
  </g>
 </g>
 <g>
  <title>Layer 1</title>
  <path d="m24.5,28.699999c1,0 2,0 4,0c0,0 1,0 4,0c0,0 4,0 8,0c4,0 8,0 16,0c5,0 10,0 16,0c8,0 16,0 24,0c8,0 16,0 24,0c8,0 12,0 20,0c5,0 12,0 20,0c5,0 12.048325,0.693506 17,0c7.209747,-1.00976 11,-2 19,-2c5,0 12,0 18,0c6,0 12,0 19,0c7,0 15,0 24,0c9,0 16.946716,-1.498739 24,-2c6.982391,-0.496223 15.072174,0.75643 19,0c5.287994,-1.018375 12,-2 16,-2c4,0 8,0 12,0c4,0 8,0 12,0c4,0 8,0 10,0c3,0 7,0 10,0c4,0 8,0 12,0c6,0 12,0 17,0c7,0 12,0 19,0c5,0 12,0 16,0c4,0 12,2 16,2c4,0 8,0 12,0c0,0 4,0 4,0c1,0 4,0 4,0c1,0 4.012909,-0.160183 5,0c3.121429,0.50654 4.823761,1.486258 7,2c3.893005,0.919012 6,0 8,0c4,0 5,2 8,2c1,0 4,0 5,0c3,0 4,0 7,0c0,0 1,1 4,1c0,0 1,0 2,0c2,0 2,0 3,0c3,0 3,0 3,0c1,0 2,0 4,0c0,0 0,0 1,0c1,0 3,-1 3,-1c0,0 1,0 1,1c0,1 0.474243,3.149347 1,3.999998c1.175598,1.902115 2,4 2,7c0,2 0.493469,5.878555 1,9c0.800903,4.935436 1.972534,10.647499 3,15c1.148743,4.866241 0,10 0,14c0,6 0.507324,10.02433 1,15c0.502441,5.074203 0.080994,11.107002 1,15c1.027466,4.352501 2,8 2,10c0,3 0,4 0,8c0,3 0.633423,7.022476 1,10c0.503784,4.092209 1.972534,5.647491 3,10c0.919006,3.89299 0,7 0,10c0,4 0,6 0,10c0,2 0,4 0,6c0,4 0,6 0,9c0,4 0,7 0,9c0,3 1.530762,6.304489 0,10c-1.082397,2.613129 -2,6 -2,10c0,2 0,6 0,8c0,3 -1,6 -1,10c0,2 -1,4 -1,5c0,3 0,5 0,8c0,3 -1.569519,5.132996 -3,9c-0.775818,2.097168 -1,6.000015 -1,8.000015c0,3 0,6 0,8c0,3 -2,6 -2,8c0,4 -0.755615,6.014984 -1,8c-0.503784,4.092224 -1,6 -1,10c0,2 0,4 0,6c0,3 -0.917603,3.386871 -2,6c-0.765381,1.847748 -0.486267,1.823761 -1,4c-0.459534,1.946503 0,2 0,4c0,0 0,1 0,2c0,0 0,2 0,2c0,1 0,2 0,2c0,2 0,2 0,3c0,1 0,1 0,3c0,0 0,1 0,2c0,0 0,2 0,2c0,1 0.292908,1.292908 1,2c1.414185,1.414215 0,2 0,3c0,1 0,1 0,3c0,0 0.707092,1.292908 0,2c-0.707092,0.707092 -2,0 -2,0c-3,0 -4,2 -7,2c-1,0 -4.907776,1.496216 -9,2c-3.970032,0.488739 -8,2 -12,2c-4,0 -10,0 -14,0c-6,0 -12,0 -18,0c-4,0 -11,0 -16,0c-4,0 -10.712006,-0.981628 -16,-2c-5.891724,-1.134644 -12.029968,0.488739 -16,0c-4.092224,-0.503784 -9.937958,-1.498291 -16,-2c-3.986359,-0.329926 -10.946716,-2.498749 -18,-3c-5.984894,-0.425323 -10,-1 -17,-1c-5,0 -9.106995,0.919006 -13,0c-4.352509,-1.027496 -8.029205,-1.408783 -14,-2c-5.074219,-0.502441 -10,-1 -14,-1c-4,0 -8,0 -12,0c-2,0 -4,0 -8,0c-3,0 -6.029968,0.488739 -10,0c-4.092224,-0.503784 -8,-1 -12,-1c-4,0 -8,0 -10,0c-4,0 -8,0 -11,0c-4,0 -8,0 -11,0c-4,0 -8,0 -12,0c-4,0 -9,0 -14,0c-4,0 -8,0 -12,0c-4,0 -7,0 -11,0c-3,0 -5,0 -9,0c-3,0 -6,0 -8,0c-4,0 -4,0 -8,0c-3,0 -6,0 -8,0c-3,0 -6,0 -8,0c-4,0 -7,-2 -10,-2c-2,0 -5,0 -8,0c-2,0 -5,0 -6,0c-4,0 -4,-1 -8,-1c-2,0 -4,0 -6,0c-2,0 -5,0 -6,0c-3,0 -3.907784,-0.496216 -8,-1c-1.985016,-0.244354 -4,0 -7,0c-3,0 -4.549156,-0.95517 -8,-2c-0.957092,-0.289795 -4,0 -5,0c-3,0 -4,0 -4,0c-2,0 -4,0 -4,0c-2,0 -4,0 -4,0c-3,0 -4,0 -6,0c-1,0 -2,0 -2,0c-3,0 -4,0 -4,0c0,0 -2,0 -3,0c-1,0 -1,0 -1,0c-2,0 -3,0 -4,0c0,0 -2,0 -4,0c-3,0 -4,0 -6,0c-2,0 -2,0 -5,0c-1,0 -1,0 -3,0c-1,0 -2,0 -2,0c-2,0 -3,0 -4,0c0,0 0,0 0,-1c0,-1 0,-1 0,-3c0,-1 0,-2 0,-4c0,-1 0,-2 0,-5c0,-3 0,-4 0,-7c0,-2 0,-4 0,-6c0,-2 0,-4 0,-6c0,-2 0,-4 0,-6c0,-4 0.755634,-6.014984 1,-8c0.503775,-4.092224 0.130648,-8.128723 1,-11c1.044832,-3.450836 2,-7 2,-11c0,-2 0,-6.000015 0,-10.000015c0,-4 -0.36655,-7.022476 0,-10c0.503773,-4.092209 1.496227,-5.907791 2,-10c0.36655,-2.977524 2,-6 2,-10c0,-2 0,-4 0,-6c0,-3 0.496227,-5.907791 1,-10c0.244366,-1.985016 0.310741,-6.080246 1,-9c1.027485,-4.352509 2,-7 2,-9c0,-3 0,-6 0,-8c0,-3 0,-6 0,-7c0,-3 0.486256,-4.823746 1,-7c0.459507,-1.946503 1,-4 1,-6c0,-2 2,-4 2,-6c0,-2 0,-4 0,-5c0,-1 0,-3 0,-5c0,-2 0,-3 0,-4c0,-2 0,-2 0,-4c0,-2 0,-2 0,-4c0,-2 0,-3 0,-4c0,-3 0.765366,-4.152245 0,-6c-1.082394,-2.613129 -1.540493,-4.053505 -2,-6c-0.513744,-2.176254 -2,-4 -2,-6c0,-1 1.051464,-2.298698 0,-4c-1.175571,-1.902115 -3,-2 -3,-4c0,0 -1,-2 -1,-2c0,-2 0,-3 0,-4c0,0 0.52573,-2.149345 0,-3c-1.175571,-1.902115 -2,-3 -2,-3c-1,-1 -1.292892,-1.292892 -2,-2c-1.414213,-1.414215 0,-2 0,-3c0,-1 0,-3 0,-4c0,-1 -2,-3 -2,-3c-1,-2 -1.486258,-1.823746 -2,-4c-0.229753,-0.973251 0,-2 0,-4c0,0 0,-2 0,-4c0,0 -2,-1 -2,-2c0,0 0,-2 0,-2c-1,-1 -1,-2 -1,-4c0,0 -0.458803,-0.693436 -1,-2c-0.765368,-1.847759 0,-2 0,-3c0,-1 0,-1 0,-3c0,0 0,-1 0,-2c0,0 0,-2 0,-2c0,-1 0,-2 0,-2c0,-2 0,-2 0,-3c0,-1 0,-1 0,-3c0,0 0,-1 0,-2c0,0 0,-1.999998 0,-1.999998c0,0 0,-1 0,-2l0,0l0,0l0,-2" id="svg_2" stroke-width="1.5" stroke="#000" fill="none"/>
 </g>
</svg>